<svg id="Capa_1" enable-background="new 0 0 512 512" height="512" viewBox="0 0 512 512" width="512" xmlns="http://www.w3.org/2000/svg"><g><g><g><path d="m446.605 146.203-11.095 277.953h-94.725l-7.335-183.609c31.019-19.614 74.74-51.365 113.155-94.344z" fill="#eff5f6"/><path d="m446.605 146.203-11.095 277.953h-32.42l9.735-243.906c11.415-10.414 22.819-21.777 33.78-34.047z" fill="#cbe5e7"/><path d="m452.013 10.889-4.811 120.49c-10.889 6.542-22.025 12.115-33.1 16.854l5.481-137.344c.248-5.944-4.512-10.889-10.456-10.889h32.43c5.944 0 10.693 4.945 10.456 10.889z" fill="#cbe5e7"/><path d="m452.013 10.889-4.811 120.49c-40.878 24.559-85.402 35.49-116.493 40.373l-6.428-160.863c-.237-5.944 4.512-10.889 10.457-10.889h106.82c5.943 0 10.692 4.945 10.455 10.889z" fill="#fca62f"/><path d="m452.013 10.889-4.811 120.49c-10.889 6.542-22.036 12.115-33.11 16.864l5.491-137.354c.248-5.944-4.512-10.889-10.456-10.889h32.43c5.944 0 10.693 4.945 10.456 10.889z" fill="#fb9927"/><path d="m447.669 119.755-1.414 35.441c-37.828 45.628-84.115 77.676-112.426 94.784l-3.539-88.701c28.175-3.539 76.096-13.486 117.379-41.524z" fill="#31a7fb"/><path d="m447.669 119.755-1.414 35.441c-10.794 13.024-22.29 24.95-33.86 35.723l2.104-52.726c11.204-5.047 22.407-11.13 33.17-18.438z" fill="#1c96f9"/></g><g><path d="m139.27 124.713h76.795v69.481h-76.795z" fill="#cbe5e7"/><path d="m216.063 124.712v69.481h-25.955v-22.27c0-6.887-5.583-12.47-12.47-12.47h-38.366v-34.741z" fill="#a9d3d8"/><g><path d="m295.354 239.713v260.492c0 6.511-5.274 11.796-11.796 11.796h-25.816v-261.533c0-2.246-1.823-4.069-4.069-4.069h-104.79c-28.278 0-51.282 23.004-51.282 51.282v214.319h-25.827c-6.511 0-11.796-5.285-11.796-11.796v-260.491c0-30.555 24.776-55.331 55.331-55.331h124.714c30.565 0 55.331 24.776 55.331 55.331z" fill="#eff5f6"/><path d="m295.354 239.713v260.492c0 6.511-5.285 11.796-11.785 11.796h-25.827v-4.45c1.617-2.019 2.575-4.564 2.575-7.345v-260.493c0-30.565-24.786-55.331-55.341-55.331h35.047c30.565 0 55.331 24.765 55.331 55.331z" fill="#cbe5e7"/><g><path d="m265.465 511.998h-175.596v-214.315c0-32.591 26.421-59.012 59.012-59.012h104.788c6.514 0 11.795 5.281 11.795 11.795v261.532z" fill="#31a7fb"/><path d="m265.464 250.461v261.539h-32.103v-261.539c0-6.506-5.276-11.793-11.793-11.793h32.103c6.517.001 11.793 5.288 11.793 11.793z" fill="#1c96f9"/></g><g><g><path d="m127.176 481.29c-4.268 0-7.726-3.459-7.726-7.726v-49.516c0-4.267 3.459-7.726 7.726-7.726s7.726 3.459 7.726 7.726v49.516c0 4.267-3.458 7.726-7.726 7.726z" fill="#fca62f"/></g><g><path d="m150.818 456.113c-4.268 0-7.726-3.459-7.726-7.726v-24.339c0-4.267 3.459-7.726 7.726-7.726s7.726 3.459 7.726 7.726v24.339c0 4.266-3.459 7.726-7.726 7.726z" fill="#fca62f"/></g><g><path d="m233.31 484.227h-25.053c-4.268 0-7.726-3.459-7.726-7.726s3.459-7.726 7.726-7.726h25.053c4.268 0 7.726 3.459 7.726 7.726s-3.459 7.726-7.726 7.726z" fill="#eff5f6"/></g><g><path d="m233.31 458.001h-25.053c-4.268 0-7.726-3.459-7.726-7.726s3.459-7.726 7.726-7.726h25.053c4.268 0 7.726 3.459 7.726 7.726s-3.459 7.726-7.726 7.726z" fill="#eff5f6"/></g><g><path d="m233.31 431.774h-8.777c-4.268 0-7.726-3.459-7.726-7.726s3.459-7.726 7.726-7.726h8.777c4.268 0 7.726 3.459 7.726 7.726s-3.459 7.726-7.726 7.726z" fill="#eff5f6"/></g></g></g><path d="m223.769 137.301h-92.203c-6.173 0-11.178-5.004-11.178-11.178v-37.05c0-6.173 5.004-11.178 11.178-11.178h92.203c6.173 0 11.178 5.004 11.178 11.178v37.051c0 6.173-5.005 11.177-11.178 11.177z" fill="#31a7fb"/><path d="m234.943 89.077v37.043c0 6.181-4.996 11.178-11.178 11.178h-29.968c6.17 0 11.178-4.996 11.178-11.178v-37.043c0-6.181-5.008-11.178-11.178-11.178h29.968c6.181 0 11.178 4.997 11.178 11.178z" fill="#1c96f9"/></g><g><path d="m430.533 512h-84.772c-5.782 0-10.47-4.688-10.47-10.47v-73.741c0-5.782 4.688-10.47 10.47-10.47h84.772c5.782 0 10.47 4.688 10.47 10.47v73.741c0 5.782-4.687 10.47-10.47 10.47z" fill="#fca62f"/><path d="m440.999 427.789v73.739c0 5.779-4.68 10.47-10.47 10.47h-28.447c5.779 0 10.47-4.69 10.47-10.47v-73.739c0-5.779-4.69-10.47-10.47-10.47h28.447c5.79 0 10.47 4.691 10.47 10.47z" fill="#fb9927"/><g><g><path d="m367.415 417.316v49.531c0 4.265-3.451 7.726-7.726 7.726-4.265 0-7.726-3.461-7.726-7.726v-49.531z" fill="#f28a22"/></g><g><path d="m395.879 417.316v49.531c0 4.265-3.462 7.726-7.726 7.726-4.275 0-7.726-3.461-7.726-7.726v-49.531z" fill="#f28a22"/></g><g><path d="m424.332 417.316v49.531c0 4.265-3.461 7.726-7.726 7.726-4.275 0-7.726-3.461-7.726-7.726v-49.531z" fill="#f28a22"/></g></g></g><g><path d="m360.887 127.481c-4.268 0-7.726-3.459-7.726-7.726v-79.177c0-4.267 3.459-7.726 7.726-7.726s7.726 3.459 7.726 7.726v79.177c.001 4.267-3.458 7.726-7.726 7.726z" fill="#eff5f6"/></g><g><path d="m385.65 60.096c-4.268 0-7.726-3.459-7.726-7.726v-11.792c0-4.267 3.459-7.726 7.726-7.726s7.726 3.459 7.726 7.726v11.792c0 4.267-3.459 7.726-7.726 7.726z" fill="#eff5f6"/></g></g><g><path d="m183.611 351.102c2.332-3.221 3.595-7.266 3.267-11.618-.647-8.587-7.64-15.532-16.231-16.125-4.627-.319-8.905 1.159-12.204 3.806-3.806 3.054-8.569 4.526-13.44 4.226-5.274-.325-10.666 1.724-14.44 6.148-5.574 6.534-5.52 16.343.12 22.822 1.772 2.035 3.89 3.556 6.18 4.563 4.49 1.974 8.06 5.545 10.035 10.035 1.005 2.285 2.522 4.399 4.551 6.169 6.422 5.6 16.147 5.716 22.687.254 4.956-4.139 7.002-10.286 6.138-16.083-.745-5.006.369-10.097 3.337-14.197z" fill="#fca62f"/><path d="m174.139 381.384c-6.543 5.458-16.265 5.348-22.686-.255-2.032-1.766-3.549-3.881-4.556-6.173-.028-.061-.061-.127-.089-.188 3.975-.011 7.944-1.345 11.155-4.025 4.955-4.135 7.003-10.28 6.139-16.082-.747-5.01.365-10.098 3.338-14.2 2.331-3.216 3.593-7.269 3.266-11.614-.149-1.943-.62-3.809-1.362-5.525.426-.005.864.011 1.301.039 8.592.587 15.584 7.534 16.231 16.121.332 4.351-.936 8.398-3.266 11.614-2.967 4.108-4.08 9.195-3.338 14.2.865 5.803-1.183 11.948-6.133 16.088z" fill="#fb9927"/><g fill="#fb9927"><circle cx="136.111" cy="293.167" r="13.637"/><circle cx="218.656" cy="375.712" r="13.637"/></g><g><g><g><circle cx="186.425" cy="289" fill="#fb9927" r="13.637"/></g></g><circle cx="222.841" cy="325.416" fill="#fb9927" r="13.637"/></g></g></g></svg>