<svg height="463pt" viewBox="0 -4 463.24217 463" width="463pt" xmlns="http://www.w3.org/2000/svg"><path d="m110.867188 315.199219v101.734375c0 18.882812 15.308593 34.191406 34.1875 34.191406 18.882812 0 34.191406-15.308594 34.191406-34.191406v-101.734375zm0 0" fill="#87796f"/><path d="m179.246094 312.199219h-68.378906c-1.65625 0-3 1.34375-3 3v101.734375c0 20.503906 16.683593 37.191406 37.191406 37.191406 20.503906 0 37.191406-16.6875 37.191406-37.191406v-101.734375c-.003906-1.65625-1.347656-3-3.003906-3zm-3 104.730469c0 17.199218-13.992188 31.191406-31.191406 31.191406-17.195313 0-31.1875-13.992188-31.1875-31.191406v-98.734376h62.375v98.734376zm0 0" fill="#3a312a"/><path d="m321.007812 332.710938c-18.882812 0-34.191406 15.304687-34.191406 34.1875v50.03125c0 18.882812 15.308594 34.191406 34.191406 34.191406 18.878907 0 34.1875-15.308594 34.1875-34.191406v-50.03125c0-18.882813-15.308593-34.1875-34.1875-34.1875zm0 0" fill="#87796f"/><path d="m321.007812 329.710938c-20.507812 0-37.191406 16.679687-37.191406 37.1875v50.03125c0 20.507812 16.683594 37.191406 37.191406 37.191406 20.503907 0 37.1875-16.683594 37.1875-37.191406v-50.03125c0-20.503907-16.683593-37.1875-37.1875-37.1875zm31.1875 87.21875c0 17.199218-13.992187 31.191406-31.1875 31.191406-17.199218 0-31.191406-13.992188-31.191406-31.191406v-50.03125c0-17.199219 13.992188-31.1875 31.191406-31.1875 17.195313 0 31.1875 13.988281 31.1875 31.1875zm0 0" fill="#3a312a"/><path d="m450.371094 200.121094c-20.121094-8.339844-36.121094 31.859375-62.5 58.238281-1.261719 1.261719-2.5 2.542969-3.722656 3.800781-.21875-.339844-.4375-.679687-.699219-1.019531-9.679688-14.160156-28.519531-23.71875-49.519531-30.160156-8.179688-2.5-16.679688-4.539063-25.097657-6.199219-18.183593-3.558594-35.980469-5.339844-49.222656-6.261719-13.277344-.878906-22-.878906-22-.878906l-91.160156 17.242187c-21.460938 4.058594-37.800781 21.738282-39.917969 43.476563-4.441406 45.621094 10.617188 80.523437 26.019531 100.882813v37.699218c0 18.878906 15.300781 34.179688 34.179688 34.179688 18.878906 0 34.199219-15.300782 34.199219-34.179688v-17c13.285156.164063 28.597656.34375 44.515624.503906l28.558594.253907c11.792969.089843 23.472656.15625 34.484375.179687v16.058594c0 18.882812 15.320313 34.179688 34.203125 34.179688 18.878906 0 34.179688-15.296876 34.179688-34.179688v-18.039062c6.898437-5.578126 18.960937-46.621094 17-90.839844 7.597656-5.519532 15.617187-12.339844 23.480468-20.21875 26.378907-26.378906 59.839844-76.617188 33.019532-87.71875zm0 0" fill="#87796f"/><path d="m462.796875 210.796875c-1.246094-6.261719-5.148437-10.910156-11.277344-13.449219-15.449219-6.40625-27.828125 10.449219-42.164062 29.953125-6.929688 9.429688-14.789063 20.121094-23.601563 28.9375-.414062.414063-.828125.828125-1.238281 1.25-9.320313-12.238281-26.023437-22.113281-49.707031-29.378906-7.746094-2.367187-16.289063-4.476563-25.402344-6.273437-15.03125-2.945313-31.714844-5.066407-49.597656-6.308594-13.222656-.878906-22.109375-.886719-22.195313-.886719-.1875 0-.375.015625-.558593.050781l-91.160157 17.242188c-22.707031 4.296875-40.121093 23.265625-42.347656 46.136718-5.171875 53.113282 15.96875 88.617188 26.003906 102.167969v36.703125c0 20.5 16.679688 37.179688 37.179688 37.179688 20.511719 0 37.203125-16.679688 37.203125-37.179688v-13.960937c12.558594.152343 26.761718.320312 41.484375.464843 1.5625 0 3.015625-1.308593 3.03125-2.96875.015625-1.65625-1.316407-3.011718-2.972657-3.03125-15.917968-.160156-31.222656-.339843-44.507812-.503906-.839844.019532-1.578125.300782-2.148438.867188-.566406.5625-.890624 1.332031-.890624 2.132812v17c0 17.191406-13.996094 31.179688-31.199219 31.179688-17.191407 0-31.179688-13.988282-31.179688-31.179688v-37.699218c0-.65625-.210937-1.292969-.609375-1.8125-9.332031-12.339844-30.496094-46.667969-25.425781-98.777344 1.972656-20.234375 17.386719-37.019532 37.492187-40.824219l90.878907-17.1875c1.574219.011719 9.804687.097656 21.515625.875 17.625 1.222656 34.058594 3.3125 48.847656 6.210937 8.90625 1.753907 17.25 3.816407 24.800781 6.121094 23.597657 7.238282 39.722657 16.992188 48.015625 29.117188.207032.269531.378906.539062.5625.828125.5.765625 1.375 1.207031 2.285156 1.296875.90625.078125 1.867188-.296875 2.503907-.957032 1.171875-1.210937 2.363281-2.441406 3.574219-3.652343 9.140624-9.140625 17.140624-20.023438 24.199218-29.628907 13.371094-18.191406 23.929688-32.5625 35.03125-27.960937 4.316406 1.785156 6.828125 4.753906 7.6875 9.074219 3.332032 16.742187-18.574218 50.644531-41.683594 73.757812-7.492187 7.507813-15.269531 14.207032-23.117187 19.910156-.816406.59375-1.28125 1.550782-1.234375 2.558594.855469 19.296875-.960938 40.296875-5.109375 59.132813-4.039063 18.324219-8.660156 27.527343-10.78125 29.242187-.703125.570313-1.113281 1.425782-1.113281 2.335938v18.039062c0 17.191406-13.988282 31.179688-31.179688 31.179688-17.207031 0-31.203125-13.988282-31.203125-31.179688v-16.058594c0-1.65625-1.335937-2.996093-2.992187-3-11.007813-.027343-22.683594-.089843-34.472656-.179687-1.664063-.101563-3.007813 1.320313-3.019532 2.976563-.015625 1.65625 1.316406 3.011718 2.976563 3.023437 10.738281.082031 21.378906.140625 31.507812.171875v13.066406c0 20.5 16.691407 37.179688 37.203125 37.179688 20.5 0 37.179688-16.679688 37.179688-37.179688v-16.796875c8.203125-9.355469 18.5625-49.703125 17.0625-90.609375 7.660156-5.675781 15.238281-12.253906 22.535156-19.574218 11.457031-11.457032 23.050781-26.164063 31.011719-39.351563 6.949219-11.496094 14.71875-27.734375 12.316406-39.8125zm0 0" fill="#3a312a"/><path d="m456.910156 211.960938c-.859375-4.320313-3.378906-7.28125-7.679687-9.058594-6.441407-2.679688-12.699219 1.039062-19.441407 8.199218 4.199219 19.398438-21.378906 55.679688-42.4375 76.738282-2.003906 2.003906-7.226562 7.570312-12.363281 12.625-6.777343 6.675781-10.726562 15.703125-11.050781 25.210937-1.007812 29.636719-7.515625 55.65625-13.132812 67.332031-2.507813 5.214844-3.933594 10.882813-3.933594 16.664063v7.269531c0 12.160156-6.339844 22.820313-15.902344 28.878906 3.636719 1.488282 7.617188 2.308594 11.777344 2.300782 17.125-.03125 31.125-14.9375 31.125-32.0625v-17.15625c0-.902344.398437-1.761719 1.117187-2.339844 2.121094-1.703125 6.742188-10.921875 10.78125-29.242188 4.140625-18.839843 5.960938-39.839843 5.101563-59.121093-.039063-1.019531.417968-1.976563 1.238281-2.558594 7.839844-5.699219 15.621094-12.398437 23.121094-19.917969 21.519531-21.523437 42.019531-52.441406 42.019531-70.101562 0-1.300782-.121094-2.519532-.339844-3.660156zm0 0" fill="#695b51"/><path d="m64.820312 321.726562c-1.949218 23.125-26.050781 26.777344-26.050781 26.777344 20.695313.972656 25.851563 28.117188 25.851563 28.117188.441406-19.355469 26.640625-28.402344 26.640625-28.402344-19.625-1.171875-26.441407-26.492188-26.441407-26.492188zm0 0" fill="#d7e057"/><path d="m91.445312 345.222656c-17.210937-1.03125-23.664062-24.046875-23.730468-24.28125-.378906-1.40625-1.726563-2.324218-3.164063-2.203125-1.449219.128907-2.597656 1.28125-2.71875 2.734375-1.71875 20.429688-22.628906 23.925782-23.511719 24.0625-1.523437.230469-2.625 1.582032-2.542968 3.125.078125 1.539063 1.3125 2.765625 2.855468 2.839844 18.054688.851562 22.996094 25.4375 23.046876 25.683594.273437 1.421875 1.515624 2.433594 2.941406 2.433594.085937 0 .167968 0 .253906-.007813 1.527344-.128906 2.714844-1.386719 2.75-2.917969.390625-17.019531 24.382812-25.554687 24.625-25.636718 1.351562-.472657 2.183594-1.828126 1.988281-3.246094-.199219-1.417969-1.367187-2.5-2.792969-2.585938zm-27.132812 20.691406c-2.710938-6.257812-7.417969-13.8125-15.175781-17.75 5.863281-2.808593 12.820312-7.828124 16.40625-16.546874 3.101562 6.140624 8.398437 13.761718 16.667969 17.445312-6.015626 3.277344-13.84375 8.8125-17.898438 16.851562zm0 0" fill="#3a312a"/><path d="m21.421875 355.6875c-1.378906 16.359375-18.421875 18.941406-18.421875 18.941406 14.632812.6875 18.28125 19.886719 18.28125 19.886719.3125-13.6875 18.84375-20.089844 18.84375-20.089844-13.882812-.832031-18.703125-18.738281-18.703125-18.738281zm0 0" fill="#d7e057"/><path d="m40.304688 371.429688c-11.53125-.6875-15.945313-16.371094-15.988282-16.527344-.378906-1.40625-1.710937-2.335938-3.164062-2.207032-1.449219.132813-2.597656 1.289063-2.71875 2.738282-1.15625 13.742187-15.292969 16.132812-15.882813 16.226562-1.527343.230469-2.6249998 1.582032-2.54687475 3.121094.08203125 1.542969 1.31249975 2.769531 2.85546875 2.84375 12.070313.566406 15.445313 17.289062 15.476563 17.453125.269531 1.425781 1.519531 2.4375 2.945312 2.4375.082031 0 .164062 0 .25-.007813 1.527344-.125 2.714844-1.386718 2.75-2.921874.261719-11.417969 16.664062-17.269532 16.828125-17.324219 1.351563-.46875 2.1875-1.828125 1.992187-3.246094-.199218-1.417969-1.367187-2.5-2.796874-2.585937zm-19.167969 13.589843c-1.847657-3.769531-4.679688-7.890625-8.894531-10.558593 3.710937-2.082032 7.394531-5.261719 9.742187-9.832032 2.113281 3.746094 5.308594 7.90625 9.882813 10.445313-3.699219 2.203125-7.980469 5.484375-10.730469 9.945312zm0 0" fill="#3a312a"/><path d="m21.421875 302.371094c-1.378906 16.359375-18.421875 18.941406-18.421875 18.941406 14.632812.6875 18.28125 19.886719 18.28125 19.886719.3125-13.691407 18.84375-20.089844 18.84375-20.089844-13.882812-.832031-18.703125-18.738281-18.703125-18.738281zm0 0" fill="#d7e057"/><path d="m40.304688 318.113281c-11.53125-.6875-15.941407-16.367187-15.988282-16.527343-.378906-1.402344-1.710937-2.335938-3.164062-2.203126-1.449219.132813-2.597656 1.285157-2.71875 2.734376-1.15625 13.742187-15.292969 16.132812-15.882813 16.226562-1.527343.230469-2.6249998 1.582031-2.54687475 3.125.08203125 1.539062 1.31249975 2.765625 2.85546875 2.839844 12.070313.570312 15.445313 17.289062 15.476563 17.453125.269531 1.425781 1.519531 2.4375 2.945312 2.4375.082031 0 .164062 0 .25-.007813 1.527344-.125 2.714844-1.386718 2.75-2.921875.261719-11.421875 16.664062-17.269531 16.828125-17.324219 1.351563-.46875 2.1875-1.828124 1.992187-3.246093-.199218-1.414063-1.367187-2.5-2.796874-2.585938zm-19.167969 13.59375c-1.847657-3.773437-4.679688-7.894531-8.894531-10.558593 3.710937-2.082032 7.394531-5.257813 9.738281-9.832032 2.117187 3.746094 5.308593 7.90625 9.882812 10.445313-3.695312 2.199219-7.976562 5.480469-10.726562 9.945312zm0 0" fill="#3a312a"/><path d="m400.238281 3.121094h-72.625c-3.820312 0-6.917969 3.097656-6.917969 6.914062 0 3.820313 3.097657 6.917969 6.917969 6.917969h51.191407c3.820312 0 6.917968 3.097656 6.917968 6.917969 0 3.820312-3.097656 6.914062-6.917968 6.914062h-51.191407c-3.820312 0-6.917969 3.097656-6.917969 6.917969s3.097657 6.914063 6.917969 6.914063h51.191407c3.820312 0 6.917968 3.097656 6.917968 6.917968 0 3.820313-3.097656 6.914063-6.917968 6.914063h-51.191407c-3.820312 0-6.917969 3.097656-6.917969 6.917969 0 3.820312 3.097657 6.917968 6.917969 6.917968h51.191407c3.820312 0 6.917968 3.097656 6.917968 6.914063 0 3.820312-3.097656 6.917969-6.917968 6.917969h-51.191407c-3.820312 0-6.917969 3.097656-6.917969 6.914062 0 3.820312 3.097657 6.917969 6.917969 6.917969h51.191407c3.820312 0 6.917968 3.097656 6.917968 6.917969 0 3.820312-3.097656 6.917968-6.917968 6.917968h-51.191407c-3.820312 0-6.917969 3.097656-6.917969 6.917969s3.097657 6.914063 6.917969 6.914063h51.191407c3.820312 0 6.917968 3.097656 6.917968 6.917968 0 3.820313-3.097656 6.917969-6.917968 6.917969h-51.191407c-3.820312 0-6.917969 3.097656-6.917969 6.917969 0 3.820312 3.097657 6.917968 6.917969 6.917968h51.191407c3.820312 0 6.917968 3.097657 6.917968 6.917969 0 3.816407-3.097656 6.917969-6.917968 6.917969h-51.191407c-3.820312 0-6.917969 3.09375-6.917969 6.914062 0 3.820313 3.097657 6.917969 6.917969 6.917969h72.625c19.171875 0 34.71875-15.546875 34.71875-34.71875v-110.398437c0-19.175782-15.546875-34.71875-34.71875-34.71875zm0 0" fill="#87796f"/><path d="m400.238281.121094h-33.261719c-1.65625 0-3 1.34375-3 3s1.34375 3 3 3h33.261719c17.488281 0 31.714844 14.226562 31.714844 31.714844v110.410156c0 17.488281-14.226563 31.714844-31.714844 31.714844h-72.625c-2.160156 0-3.914062-1.753907-3.914062-3.914063s1.753906-3.917969 3.914062-3.917969h51.191407c5.46875 0 9.914062-4.449218 9.914062-9.917968s-4.449219-9.917969-9.914062-9.917969h-51.191407c-2.160156 0-3.914062-1.757813-3.914062-3.914063 0-2.160156 1.753906-3.917968 3.914062-3.917968h51.191407c5.46875 0 9.914062-4.449219 9.914062-9.917969s-4.449219-9.917969-9.914062-9.917969h-51.191407c-2.160156 0-3.914062-1.757812-3.914062-3.914062 0-2.160157 1.753906-3.917969 3.914062-3.917969h51.191407c5.46875 0 9.914062-4.449219 9.914062-9.917969s-4.449219-9.917969-9.914062-9.917969h-51.191407c-2.160156 0-3.914062-1.757812-3.914062-3.914062 0-2.160157 1.753906-3.917969 3.914062-3.917969h51.191407c5.46875 0 9.914062-4.449219 9.914062-9.914062 0-5.46875-4.449219-9.917969-9.914062-9.917969h-51.191407c-2.160156 0-3.914062-1.757813-3.914062-3.914063 0-2.160156 1.753906-3.917968 3.914062-3.917968h51.191407c5.46875 0 9.914062-4.449219 9.914062-9.914063 0-5.46875-4.449219-9.917969-9.914062-9.917969h-51.191407c-2.160156 0-3.914062-1.753906-3.914062-3.914062s1.753906-3.917969 3.914062-3.917969h51.191407c5.46875 0 9.914062-4.449219 9.914062-9.914063 0-5.46875-4.449219-9.917968-9.914062-9.917968h-51.191407c-2.160156 0-3.914062-1.753906-3.914062-3.914063 0-2.160156 1.753906-3.917969 3.914062-3.917969h10.867188c1.660156 0 3-1.339843 3-3 0-1.65625-1.339844-3-3-3h-10.867188c-5.46875 0-9.914062 4.449219-9.914062 9.917969 0 5.464844 4.449219 9.914063 9.914062 9.914063h51.191407c2.160156 0 3.914062 1.757812 3.914062 3.917968 0 2.160157-1.753906 3.914063-3.914062 3.914063h-51.191407c-5.46875 0-9.914062 4.449219-9.914062 9.917969 0 5.464844 4.449219 9.914062 9.914062 9.914062h51.191407c2.160156 0 3.914062 1.757813 3.914062 3.917969s-1.753906 3.914063-3.914062 3.914063h-51.191407c-5.46875 0-9.914062 4.449218-9.914062 9.917968 0 5.464844 4.449219 9.914063 9.914062 9.914063h51.191407c2.160156 0 3.914062 1.757812 3.914062 3.917969 0 2.15625-1.753906 3.914062-3.914062 3.914062h-51.191407c-5.46875 0-9.914062 4.449219-9.914062 9.917969 0 5.464843 4.449219 9.914062 9.914062 9.914062h51.191407c2.160156 0 3.914062 1.757813 3.914062 3.917969s-1.753906 3.917969-3.914062 3.917969h-51.191407c-5.46875 0-9.914062 4.449219-9.914062 9.917969 0 5.464843 4.449219 9.914062 9.914062 9.914062h51.191407c2.160156 0 3.914062 1.757812 3.914062 3.917969 0 2.164062-1.753906 3.917969-3.914062 3.917969h-51.191407c-5.46875 0-9.914062 4.449218-9.914062 9.917968 0 5.464844 4.449219 9.914063 9.914062 9.914063h51.191407c2.160156 0 3.914062 1.757812 3.914062 3.917969 0 2.164062-1.753906 3.917968-3.914062 3.917968h-51.191407c-5.46875 0-9.914062 4.449219-9.914062 9.917969 0 5.464844 4.449219 9.914063 9.914062 9.914063h72.625c20.796875 0 37.714844-16.917969 37.714844-37.714844v-110.410156c0-20.792969-16.917969-37.714844-37.714844-37.714844zm0 0" fill="#3a312a"/><path d="m400.230469 6.121094h-30c17.5 0 31.71875 14.21875 31.71875 31.71875v110.402344c0 17.5-14.21875 31.71875-31.71875 31.71875h30c17.5 0 31.71875-14.21875 31.71875-31.71875v-110.402344c0-17.5-14.21875-31.71875-31.71875-31.71875zm0 0" fill="#695b51"/><path d="m106.53125 44.0625c-19.144531-34.824219-69.558594-43.875-76.292969-40.171875-5.507812 3.027344-26.109375 51.117187-6.964843 85.941406 19.144531 34.824219 45.5625 38.730469 68.550781 26.089844 22.992187-12.636719 33.851562-37.03125 14.707031-71.859375zm0 0" fill="#87796f"/><path d="m109.160156 42.617188c-19.886718-36.175782-71.6875-46.121094-80.367187-41.355469-6.871094 3.777343-28.394531 53.1875-8.148438 90.015625 9.421875 17.136718 21.046875 27.992187 34.558594 32.257812 4.167969 1.320313 8.472656 1.972656 12.851563 1.972656 8.269531 0 16.808593-2.335937 25.214843-6.957031 12.855469-7.066406 21.363281-17.253906 24.605469-29.46875 3.640625-13.691406.707031-29.324219-8.714844-46.464843zm2.921875 44.925781c-2.8125 10.589843-10.316406 19.492187-21.703125 25.753906-11.382812 6.257813-22.917968 7.820313-33.367187 4.519531-11.988281-3.789062-22.457031-13.6875-31.109375-29.429687-18.097656-32.921875 1.335937-78.601563 5.78125-81.867188.5-.253906 1.523437-.394531 2.980468-.394531 11.929688 0 52.714844 9.320312 69.238282 39.382812 8.652344 15.742188 11.402344 29.886719 8.179687 42.035157zm0 0" fill="#3a312a"/><path d="m86.640625 50.988281c-10.773437-19.597656-39.152344-24.691406-42.941406-22.609375-3.101563 1.703125-14.695313 28.769532-3.917969 48.371094 10.773438 19.601562 25.644531 21.800781 38.582031 14.683594 12.941407-7.113282 19.054688-20.84375 8.277344-40.445313zm0 0" fill="#f16c7a"/><path d="m89.269531 49.542969c-11.046875-20.097657-41.003906-27.097657-47.015625-23.792969-4.949218 2.722656-16.390625 31.914062-5.105468 52.445312 7.203124 13.105469 17.070312 19.976563 27.882812 19.972657 4.789062 0 9.765625-1.347657 14.777344-4.101563 7.554687-4.15625 12.566406-10.171875 14.484375-17.398437 2.140625-8.046875.445312-17.171875-5.023438-27.125zm-.773437 25.582031c-1.488282 5.605469-5.492188 10.335938-11.578125 13.683594-13.410157 7.367187-25.667969 2.578125-34.511719-13.503906-9.46875-17.226563-.222656-40.855469 2.820312-44.289063 3.929688-.777344 29.082032 3.761719 38.785157 21.417969 4.703125 8.554687 6.210937 16.191406 4.484375 22.691406zm0 0" fill="#3a312a"/><path d="m283.222656 3.890625c-6.734375-3.703125-57.148437 5.347656-76.292968 40.171875-19.144532 34.828125-8.285157 59.222656 14.707031 71.859375 22.992187 12.640625 49.40625 8.734375 68.550781-26.089844s-1.457031-82.914062-6.964844-85.941406zm0 0" fill="#87796f"/><path d="m284.667969 1.261719c-8.683594-4.773438-60.480469 5.179687-80.367188 41.355469-9.421875 17.140624-12.355469 32.773437-8.71875 46.464843 3.242188 12.214844 11.753907 22.402344 24.609375 29.46875 8.40625 4.621094 16.941406 6.957031 25.210938 6.957031 4.378906 0 8.6875-.65625 12.855468-1.972656 13.507813-4.265625 25.136719-15.121094 34.558594-32.257812 20.246094-36.824219-1.277344-86.238282-8.148437-90.015625zm2.890625 87.125c-8.652344 15.742187-19.117188 25.640625-31.105469 29.429687-10.449219 3.300782-21.988281 1.738282-33.371094-4.519531-11.382812-6.261719-18.886719-15.164063-21.699219-25.753906-3.230468-12.148438-.476562-26.292969 8.175782-42.035157 18.542968-33.726562 67.621094-41.347656 72.144531-39.03125 4.519531 3.308594 23.957031 48.988282 5.855469 81.910157zm0 0" fill="#3a312a"/><path d="m269.761719 28.378906c-3.792969-2.082031-32.167969 3.011719-42.941407 22.609375-10.777343 19.601563-4.664062 33.332031 8.277344 40.445313 12.941406 7.117187 27.808594 4.917968 38.585938-14.683594 10.773437-19.601562-.820313-46.667969-3.921875-48.371094zm0 0" fill="#f16c7a"/><path d="m271.207031 25.75c-6.015625-3.304688-35.96875 3.695312-47.015625 23.796875-10.390625 18.90625-6.855468 35.546875 9.460938 44.519531 4.933594 2.707032 9.949218 4.078125 14.820312 4.078125 2.59375 0 5.152344-.386719 7.632813-1.171875 7.9375-2.503906 14.734375-8.824218 20.207031-18.777344 11.285156-20.53125-.160156-49.722656-5.105469-52.445312zm-.15625 49.554688c-4.699219 8.554687-10.335937 13.917968-16.753906 15.945312-5.53125 1.746094-11.671875.902344-17.753906-2.441406-13.414063-7.375-15.933594-20.292969-7.09375-36.375 9.789062-17.804688 35.277343-22.285156 38.75-21.457032 3 3.277344 12.363281 27.027344 2.851562 44.328126zm0 0" fill="#3a312a"/><path d="m275.410156 179.402344c-.21875-.242188-.441406-.480469-.660156-.742188.238281-3.417968.359375-6.839844.359375-10.339844 0-14.121093-2.058594-27.71875-5.917969-40.460937-11.882812-39.539063-40.742187-70.71875-77.203125-83.277344-11.359375-3.921875-23.4375-6.039062-35.976562-6.039062-12.101563 0-23.78125 1.957031-34.78125 5.636719-37 12.28125-66.378907 43.703124-78.398438 83.703124-3.84375 12.738282-5.921875 26.316407-5.921875 40.4375 0 3.800782.160156 7.539063.460938 11.242188.019531.179688.019531.359375.039062.539062-10 11.339844-15.679687 24.257813-15.679687 38 0 4.320313.558593 8.417969 1.640625 12.300782 10.117187 36.519531 65.980468 54.417968 133.359375 54.417968 67.378906 0 123.238281-17.898437 133.359375-54.417968 1.082031-3.882813 1.640625-7.980469 1.640625-12.300782 0-14.039062-5.921875-27.199218-16.320313-38.699218zm0 0" fill="#fce8cb"/><path d="m277.828125 177.601562c.191406-3.078124.285156-6.125.285156-9.28125 0-14.175781-2.039062-28.082031-6.046875-41.324218-12.171875-40.515625-41.742187-72.386719-79.09375-85.253906-11.929687-4.117188-24.367187-6.203126-36.957031-6.203126-12.21875 0-24.238281 1.949219-35.726563 5.792969-37.964843 12.597657-67.992187 44.632813-80.328124 85.679688-4.011719 13.316406-6.046876 27.214843-6.046876 41.308593 0 3.488282.132813 7.050782.410157 10.757813-10.203125 11.953125-15.59375 25.417969-15.59375 39.019531 0 4.523438.589843 8.933594 1.75 13.101563 9.824219 35.453125 60.757812 56.621093 136.25 56.621093 75.492187 0 126.425781-21.167968 136.25-56.617187 1.164062-4.171875 1.75-8.578125 1.75-13.105469 0-14.175781-5.839844-28.167968-16.902344-40.496094zm9.371094 52c-8.925781 32.210938-58.917969 52.21875-130.46875 52.21875s-121.542969-20.007812-130.46875-52.222656c-1.019531-3.648437-1.53125-7.515625-1.53125-11.496094 0-12.664062 5.023437-24.78125 14.929687-36.015624.558594-.636719.820313-1.585938.722656-2.429688-.007812-.140625-.015624-.277344-.023437-.339844-.296875-3.683594-.449219-7.386718-.449219-10.996094 0-13.507812 1.949219-26.824218 5.792969-39.578124 11.773437-39.183594 40.359375-69.734376 76.476563-81.71875 10.878906-3.636719 22.261718-5.484376 33.828124-5.484376 11.925782 0 23.703126 1.976563 35.003907 5.875 35.53125 12.242188 63.683593 42.636719 75.304687 81.316407 3.839844 12.679687 5.789063 26 5.789063 39.589843 0 3.441407-.117188 6.757813-.351563 10.128907-.054687.78125.195313 1.550781.703125 2.148437.246094.292969.492188.5625.722657.8125 10.316406 11.40625 15.542968 23.75 15.542968 36.6875.007813 3.984375-.507812 7.851563-1.523437 11.503906zm0 0" fill="#3a312a"/><path d="m121.230469 44.179688c-37 12.28125-66.378907 43.703124-78.398438 83.703124-3.84375 12.738282-5.921875 26.316407-5.921875 40.4375 0 3.800782.160156 7.539063.460938 11.242188.019531.179688.019531.359375.039062.539062-10 11.339844-15.679687 24.257813-15.679687 38 0 4.320313.558593 8.417969 1.640625 12.300782 8.617187 3.71875 17.820312 5.71875 27.359375 5.71875 49.300781 0 89.238281-53.28125 89.238281-119 0-27.480469-6.980469-52.800782-18.738281-72.941406zm0 0" fill="#87796f"/><path d="m123.820312 42.667969c-.710937-1.226563-2.1875-1.78125-3.535156-1.335938-37.960937 12.601563-67.992187 44.632813-80.324218 85.683594-4.011719 13.3125-6.050782 27.210937-6.050782 41.304687 0 3.488282.136719 7.054688.414063 10.761719-10.207031 11.949219-15.59375 25.417969-15.59375 39.019531 0 4.523438.589843 8.929688 1.75 13.105469.242187.871094.867187 1.589844 1.703125 1.949219 9.171875 3.957031 18.777344 5.960938 28.546875 5.960938 50.863281 0 92.238281-54.726563 92.238281-122 0-27.25-6.621094-52.996094-19.148438-74.449219zm-73.089843 190.453125c-8.472657 0-16.820313-1.652344-24.828125-4.910156-.777344-3.238282-1.171875-6.628907-1.171875-10.109376 0-12.664062 5.023437-24.78125 14.929687-36.015624.558594-.636719.820313-1.585938.722656-2.429688-.007812-.140625-.015624-.277344-.023437-.339844-.296875-3.683594-.449219-7.386718-.449219-10.996094 0-13.507812 1.949219-26.824218 5.792969-39.578124 11.519531-38.34375 39.140625-68.414063 74.152344-80.917969 11.203125 20.105469 17.113281 44.003906 17.113281 69.296875 0 63.960937-38.683594 116-86.238281 116zm0 0" fill="#3a312a"/><path d="m275.410156 179.402344c-.21875-.242188-.441406-.480469-.660156-.742188.238281-3.417968.359375-6.839844.359375-10.339844 0-14.121093-2.058594-27.71875-5.917969-40.460937-11.882812-39.539063-40.742187-70.71875-77.203125-83.277344-11.597656 20.078125-18.5 45.238281-18.5 72.539063 0 65.71875 39.941407 119 89.242188 119 9.539062 0 18.738281-2 27.359375-5.71875 1.082031-3.882813 1.640625-7.980469 1.640625-12.300782 0-14.039062-5.921875-27.199218-16.320313-38.699218zm0 0" fill="#87796f"/><path d="m277.828125 177.601562c.191406-3.078124.285156-6.125.285156-9.28125 0-14.175781-2.039062-28.082031-6.046875-41.324218-12.171875-40.515625-41.742187-72.386719-79.09375-85.253906-1.359375-.46875-2.859375.09375-3.578125 1.335937-12.367187 21.40625-18.902343 47.007813-18.902343 74.042969 0 67.273437 41.378906 122 92.238281 122 9.773437 0 19.378906-2.007813 28.550781-5.964844.832031-.359375 1.457031-1.074219 1.699219-1.949219 1.164062-4.171875 1.75-8.578125 1.75-13.105469 0-14.179687-5.839844-28.171874-16.902344-40.5zm9.730469 50.609376c-8.007813 3.257812-16.355469 4.910156-24.828125 4.910156-47.550781 0-86.242188-52.039063-86.242188-116 0-25.066406 5.828125-48.816406 16.875-68.863282 34.421875 12.75 61.59375 42.652344 72.957031 80.472657 3.839844 12.683593 5.789063 26.003906 5.789063 39.589843 0 3.445313-.117187 6.757813-.351563 10.128907-.054687.78125.195313 1.550781.703126 2.148437.246093.292969.492187.5625.722656.816406 10.316406 11.40625 15.542968 23.75 15.542968 36.6875.003907 3.480469-.390624 6.875-1.167968 10.109376zm0 0" fill="#3a312a"/><path d="m156.78125 170.765625c-10.570312-.042969-19.164062 5.058594-19.191406 11.402344-.03125 6.34375 8.496094 16.628906 19.066406 16.675781 10.574219.046875 19.191406-10.164062 19.21875-16.507812.027344-6.339844-8.519531-11.519532-19.09375-11.570313zm0 0" fill="#3a312a"/><path d="m156.730469 193.144531c0 13.660157-10.347657 24.875-23.632813 26.257813.25 16.453125 10.738282 29.679687 23.632813 29.679687s23.382812-13.222656 23.632812-29.679687c-13.28125-1.382813-23.632812-12.597656-23.632812-26.257813zm0 0" fill="#f16c7a"/><g fill="#3a312a"><path d="m180.675781 216.421875c-11.941406-1.246094-20.945312-11.25-20.945312-23.277344 0-1.65625-1.34375-3-3-3-1.660157 0-3 1.34375-3 3 0 12.027344-9.003907 22.03125-20.945313 23.277344-1.546875.160156-2.710937 1.472656-2.6875 3.027344.277344 18.296875 11.972656 32.632812 26.628906 32.632812 14.660157 0 26.359376-14.332031 26.636719-32.632812.023438-1.554688-1.144531-2.867188-2.6875-3.027344zm-23.945312 29.660156c-10.492188 0-19.300781-10.605469-20.5-24.125 9.113281-1.839843 16.574219-7.8125 20.5-15.816406 3.925781 8.003906 11.390625 13.972656 20.5 15.816406-1.195313 13.519531-10.007813 24.125-20.5 24.125zm0 0"/><path d="m156.730469 190.144531c-1.660157 0-3 1.34375-3 3 0 12.027344-9.003907 22.03125-20.988281 23.28125-.753907.089844-1.570313.132813-2.425782.132813-12.910156 0-23.414062-10.503906-23.414062-23.414063 0-1.65625-1.34375-3-3-3-1.660156 0-3 1.34375-3 3 0 16.21875 13.195312 29.414063 29.414062 29.414063 1.089844 0 2.144532-.058594 3.089844-.171875 15.007812-1.5625 26.324219-14.132813 26.324219-29.242188 0-1.65625-1.34375-3-3-3zm0 0"/><path d="m209.558594 190.144531c-1.65625 0-3 1.34375-3 3 0 12.910157-10.503906 23.414063-23.414063 23.414063-.855469 0-1.671875-.042969-2.46875-.136719-11.941406-1.246094-20.945312-11.25-20.945312-23.277344 0-1.65625-1.339844-3-3-3-1.65625 0-3 1.34375-3 3 0 15.109375 11.316406 27.679688 26.285156 29.238281.988281.117188 2.039063.175782 3.132813.175782 16.21875 0 29.414062-13.195313 29.414062-29.414063-.003906-1.65625-1.347656-3-3.003906-3zm0 0"/></g><path d="m79.042969 164.167969c-13.730469 0-24.859375 6.957031-24.859375 15.539062s11.128906 15.539063 24.859375 15.539063 24.859375-6.957032 24.859375-15.539063-11.128906-15.539062-24.859375-15.539062zm0 0" fill="#f5978a"/><path d="m234.421875 164.167969c-13.730469 0-24.863281 6.957031-24.863281 15.539062s11.132812 15.539063 24.863281 15.539063c13.726563 0 24.859375-6.957032 24.859375-15.539063s-11.132812-15.539062-24.859375-15.539062zm0 0" fill="#f5978a"/><path d="m116.332031 137.984375c-6.007812 0-10.875 4.871094-10.875 10.875 0 6.007813 4.867188 10.878906 10.875 10.878906 6.007813 0 10.875-4.871093 10.875-10.878906 0-6.003906-4.867187-10.875-10.875-10.875zm0 0" fill="#3a312a"/><path d="m197.621094 137.984375c-6-.273437-11.085938 4.371094-11.359375 10.371094-.269531 6 4.371093 11.085937 10.371093 11.359375 6.003907.273437 11.089844-4.371094 11.359376-10.371094.273437-6-4.371094-11.085938-10.371094-11.359375zm0 0" fill="#3a312a"/></svg>